<?xml version="1.0" encoding="utf-8"?>
<!-- Generator: Adobe Illustrator 21.1.0, SVG Export Plug-In . SVG Version: 6.00 Build 0)  -->
<svg version="1.1" id="Capa_1" xmlns="http://www.w3.org/2000/svg" xmlns:xlink="http://www.w3.org/1999/xlink" x="0px" y="0px"
	 viewBox="0 0 359 63" style="enable-background:new 0 0 359 63;" xml:space="preserve">
<style type="text/css">
	.st0{fill:#A8D6CC;}
	.st1{fill:#4D404A;}
</style>
<g>
	<path class="st0" d="M120.3,45.8L94,19.1c-0.3-0.3-0.8-0.3-1.2,0l-26,26.4l-26-26.4c-0.3-0.3-0.8-0.3-1.2,0L13.2,46.1
		c-0.3,0.3-0.3,0.9,0,1.2c0.3,0.3,0.8,0.3,1.2,0l26-26.4l26,26.4c0.2,0.2,0.4,0.2,0.6,0.2s0.4-0.1,0.6-0.2l26-26.4l26,26.4
		c0.2,0.2,0.4,0.2,0.6,0.2h15.8c0.5,0,0.8-0.4,0.8-0.8V1.2c0-0.5-0.4-0.8-0.8-0.8H1.3c-0.5,0-0.8,0.4-0.8,0.8v60.6
		c0,0.5,0.4,0.8,0.8,0.8h134.4c0.5,0,0.8-0.4,0.8-0.8s-0.4-0.8-0.8-0.8H2.2V2h132.7v43.8H120.3z"/>
	<path class="st1" d="M104,46.1L77.4,19.1c-0.3-0.3-0.8-0.3-1.2,0l-9.4,9.5l-9.4-9.5c-0.3-0.3-0.8-0.3-1.2,0L29.8,46.1
		c-0.3,0.3-0.3,0.9,0,1.2c0.2,0.2,0.4,0.2,0.6,0.2s0.4-0.1,0.6-0.2l26-26.4l9.4,9.5c0,0,0,0,0,0l0,0c0.2,0.2,0.4,0.2,0.6,0.2
		s0.4-0.1,0.6-0.2l9.4-9.5l26,26.4c0.2,0.2,0.4,0.2,0.6,0.2s0.4-0.1,0.6-0.2C104.3,46.9,104.3,46.4,104,46.1z"/>
	<g>
		<path class="st1" d="M198.6,23.6c0.2,0.2,0.2,0.4,0.2,0.7v14.4c0,0.3-0.1,0.5-0.2,0.7c-0.1,0.2-0.4,0.3-0.6,0.3
			c-0.3,0-0.5-0.1-0.6-0.3c-0.1-0.2-0.2-0.4-0.2-0.7V27.1l-4.9,9.5c-0.2,0.4-0.5,0.7-0.9,0.7c-0.4,0-0.7-0.2-0.9-0.7l-4.9-9.4v11.5
			c0,0.3-0.1,0.5-0.2,0.7c-0.1,0.2-0.3,0.3-0.6,0.3c-0.3,0-0.5-0.1-0.6-0.3c-0.1-0.2-0.2-0.4-0.2-0.7V24.3c0-0.3,0.1-0.5,0.2-0.7
			c0.2-0.2,0.4-0.3,0.7-0.3c0.4,0,0.7,0.2,0.9,0.7l5.7,11.1l5.6-11.1c0.1-0.2,0.3-0.4,0.4-0.5c0.1-0.1,0.3-0.1,0.5-0.1
			C198.3,23.4,198.5,23.4,198.6,23.6z"/>
		<path class="st1" d="M203.1,39.4c-0.2-0.2-0.2-0.4-0.2-0.7V24.3c0-0.3,0.1-0.5,0.2-0.7c0.2-0.2,0.4-0.3,0.7-0.3
			c0.3,0,0.5,0.1,0.7,0.3c0.2,0.2,0.2,0.4,0.2,0.7v14.4c0,0.3-0.1,0.5-0.2,0.7c-0.2,0.2-0.4,0.3-0.7,0.3
			C203.4,39.6,203.2,39.6,203.1,39.4z"/>
		<path class="st1" d="M211.4,38.7c-1.1-0.7-1.9-1.6-2.5-2.8c-0.6-1.2-0.9-2.7-0.9-4.4c0-1.7,0.3-3.1,0.9-4.4
			c0.6-1.2,1.4-2.2,2.5-2.8c1.1-0.7,2.4-1,3.9-1c1,0,1.9,0.2,2.8,0.5c0.9,0.3,1.7,0.8,2.3,1.4c0.2,0.2,0.4,0.5,0.4,0.8
			c0,0.2-0.1,0.4-0.2,0.6c-0.1,0.2-0.3,0.2-0.4,0.2c-0.2,0-0.4-0.1-0.7-0.3c-0.8-0.6-1.5-1-2.1-1.3c-0.6-0.2-1.3-0.4-2.1-0.4
			c-1.7,0-3.1,0.6-4,1.7c-0.9,1.1-1.4,2.8-1.4,4.9c0,2.1,0.5,3.8,1.4,4.9c0.9,1.1,2.3,1.7,4,1.7c0.8,0,1.5-0.1,2.1-0.4
			c0.6-0.2,1.3-0.7,2.1-1.3c0.3-0.2,0.5-0.3,0.7-0.3c0.2,0,0.3,0.1,0.4,0.2c0.1,0.2,0.2,0.3,0.2,0.6c0,0.3-0.1,0.6-0.4,0.8
			c-0.7,0.6-1.4,1.1-2.3,1.4c-0.9,0.3-1.8,0.5-2.8,0.5C213.8,39.7,212.5,39.4,211.4,38.7z"/>
		<path class="st1" d="M236.6,23.6c0.2,0.2,0.2,0.4,0.2,0.7v14.4c0,0.3-0.1,0.5-0.2,0.7c-0.2,0.2-0.4,0.3-0.7,0.3s-0.5-0.1-0.7-0.3
			c-0.2-0.2-0.2-0.4-0.2-0.7v-6.5h-9.5v6.5c0,0.3-0.1,0.5-0.2,0.7c-0.2,0.2-0.4,0.3-0.7,0.3c-0.3,0-0.5-0.1-0.7-0.3
			c-0.2-0.2-0.2-0.4-0.2-0.7V24.3c0-0.3,0.1-0.5,0.2-0.7c0.2-0.2,0.4-0.3,0.7-0.3c0.3,0,0.5,0.1,0.7,0.3c0.2,0.2,0.2,0.4,0.2,0.7
			v6.3h9.5v-6.3c0-0.3,0.1-0.5,0.2-0.7c0.2-0.2,0.4-0.3,0.7-0.3S236.5,23.4,236.6,23.6z"/>
		<path class="st1" d="M241,39.3c-0.2-0.2-0.3-0.4-0.3-0.7V24.4c0-0.3,0.1-0.5,0.3-0.7c0.2-0.2,0.4-0.3,0.7-0.3h8.4
			c0.3,0,0.5,0.1,0.6,0.2c0.1,0.1,0.2,0.3,0.2,0.6c0,0.2-0.1,0.4-0.2,0.6c-0.1,0.1-0.4,0.2-0.6,0.2h-7.5v5.6h7.1
			c0.3,0,0.5,0.1,0.6,0.2c0.1,0.1,0.2,0.3,0.2,0.6c0,0.2-0.1,0.4-0.2,0.6c-0.1,0.1-0.4,0.2-0.6,0.2h-7.1V38h7.5
			c0.3,0,0.5,0.1,0.6,0.2c0.1,0.1,0.2,0.3,0.2,0.6c0,0.2-0.1,0.4-0.2,0.6c-0.1,0.1-0.4,0.2-0.6,0.2h-8.4
			C241.4,39.5,241.2,39.4,241,39.3z"/>
		<path class="st1" d="M254.1,39.3c-0.2-0.2-0.3-0.4-0.3-0.6V24.3c0-0.3,0.1-0.5,0.2-0.7c0.2-0.2,0.4-0.3,0.7-0.3
			c0.3,0,0.5,0.1,0.7,0.3c0.2,0.2,0.2,0.4,0.2,0.7v13.6h7.2c0.3,0,0.5,0.1,0.6,0.2c0.1,0.1,0.2,0.3,0.2,0.6c0,0.3-0.1,0.5-0.2,0.6
			c-0.1,0.1-0.4,0.2-0.6,0.2h-8.2C254.5,39.5,254.2,39.5,254.1,39.3z"/>
		<path class="st1" d="M266.2,39.3c-0.2-0.2-0.3-0.4-0.3-0.6V24.3c0-0.3,0.1-0.5,0.2-0.7c0.2-0.2,0.4-0.3,0.7-0.3
			c0.3,0,0.5,0.1,0.7,0.3c0.2,0.2,0.2,0.4,0.2,0.7v13.6h7.2c0.3,0,0.5,0.1,0.6,0.2c0.1,0.1,0.2,0.3,0.2,0.6c0,0.3-0.1,0.5-0.2,0.6
			c-0.1,0.1-0.4,0.2-0.6,0.2h-8.2C266.6,39.5,266.4,39.5,266.2,39.3z"/>
		<path class="st1" d="M278.3,39.3c-0.2-0.2-0.3-0.4-0.3-0.7V24.4c0-0.3,0.1-0.5,0.3-0.7c0.2-0.2,0.4-0.3,0.7-0.3h8.4
			c0.3,0,0.5,0.1,0.6,0.2c0.1,0.1,0.2,0.3,0.2,0.6c0,0.2-0.1,0.4-0.2,0.6c-0.1,0.1-0.4,0.2-0.6,0.2h-7.5v5.6h7.1
			c0.3,0,0.5,0.1,0.6,0.2c0.1,0.1,0.2,0.3,0.2,0.6c0,0.2-0.1,0.4-0.2,0.6c-0.1,0.1-0.4,0.2-0.6,0.2h-7.1V38h7.5
			c0.3,0,0.5,0.1,0.6,0.2c0.1,0.1,0.2,0.3,0.2,0.6c0,0.2-0.1,0.4-0.2,0.6c-0.1,0.1-0.4,0.2-0.6,0.2H279
			C278.7,39.5,278.5,39.4,278.3,39.3z"/>
		<path class="st1" d="M311.6,23.6c0.2,0.2,0.2,0.4,0.2,0.7v14.4c0,0.3-0.1,0.5-0.2,0.7c-0.1,0.2-0.4,0.3-0.6,0.3s-0.5-0.1-0.6-0.3
			c-0.1-0.2-0.2-0.4-0.2-0.7V27.1l-4.9,9.5c-0.2,0.4-0.5,0.7-0.9,0.7c-0.4,0-0.7-0.2-0.9-0.7l-4.9-9.4v11.5c0,0.3-0.1,0.5-0.2,0.7
			c-0.1,0.2-0.3,0.3-0.6,0.3c-0.3,0-0.5-0.1-0.6-0.3c-0.1-0.2-0.2-0.4-0.2-0.7V24.3c0-0.3,0.1-0.5,0.2-0.7c0.2-0.2,0.4-0.3,0.7-0.3
			c0.4,0,0.7,0.2,0.9,0.7l5.7,11.1l5.6-11.1c0.1-0.2,0.3-0.4,0.4-0.5c0.1-0.1,0.3-0.1,0.5-0.1C311.2,23.4,311.5,23.4,311.6,23.6z"/>
		<path class="st1" d="M318.6,38.7c-1.1-0.7-1.9-1.6-2.5-2.8s-0.9-2.7-0.9-4.4c0-1.7,0.3-3.1,0.9-4.4c0.6-1.2,1.4-2.2,2.5-2.8
			c1.1-0.7,2.4-1,3.8-1c1.5,0,2.8,0.3,3.8,1c1.1,0.7,1.9,1.6,2.5,2.8c0.6,1.2,0.9,2.7,0.9,4.4c0,1.7-0.3,3.1-0.9,4.4
			c-0.6,1.2-1.4,2.2-2.5,2.9c-1.1,0.7-2.4,1-3.8,1C320.9,39.7,319.7,39.4,318.6,38.7z M326.3,36.4c0.9-1.1,1.4-2.8,1.4-4.9
			s-0.5-3.8-1.4-4.9c-0.9-1.1-2.2-1.7-3.9-1.7c-1.7,0-3,0.6-3.9,1.7s-1.4,2.8-1.4,4.9s0.5,3.7,1.4,4.9c0.9,1.2,2.2,1.7,3.9,1.7
			C324.1,38.1,325.4,37.5,326.3,36.4z"/>
		<path class="st1" d="M345.1,38.9c0,0.2-0.1,0.4-0.3,0.6c-0.2,0.1-0.4,0.2-0.6,0.2c-0.3,0-0.6-0.2-0.8-0.5l-3-4.8
			c-0.4-0.6-0.8-1.1-1.2-1.3c-0.4-0.2-1-0.4-1.7-0.4h-2.8v5.9c0,0.3-0.1,0.5-0.2,0.7c-0.2,0.2-0.4,0.3-0.6,0.3
			c-0.3,0-0.5-0.1-0.7-0.3c-0.2-0.2-0.2-0.4-0.2-0.7V24.4c0-0.3,0.1-0.5,0.3-0.7c0.2-0.2,0.4-0.3,0.7-0.3h5.6c1.7,0,3,0.4,3.9,1.2
			c0.9,0.8,1.4,1.9,1.4,3.4c0,1.3-0.4,2.3-1.1,3.1c-0.7,0.8-1.8,1.2-3.1,1.4c0.4,0.1,0.7,0.3,1,0.6c0.3,0.3,0.6,0.7,0.9,1.1l2.6,4.1
			C345.1,38.5,345.1,38.7,345.1,38.9z M339.3,31.2c1.2,0,2.1-0.3,2.7-0.8s0.9-1.3,0.9-2.3c0-1-0.3-1.8-0.9-2.3
			c-0.6-0.5-1.5-0.8-2.8-0.8h-4.5v6.2H339.3z"/>
		<path class="st1" d="M348.6,39.3c-0.2-0.2-0.3-0.4-0.3-0.7V24.4c0-0.3,0.1-0.5,0.3-0.7c0.2-0.2,0.4-0.3,0.7-0.3h8.4
			c0.3,0,0.5,0.1,0.6,0.2c0.1,0.1,0.2,0.3,0.2,0.6c0,0.2-0.1,0.4-0.2,0.6c-0.2,0.1-0.4,0.2-0.6,0.2h-7.5v5.6h7.1
			c0.3,0,0.5,0.1,0.6,0.2c0.1,0.1,0.2,0.3,0.2,0.6c0,0.2-0.1,0.4-0.2,0.6c-0.2,0.1-0.4,0.2-0.6,0.2h-7.1V38h7.5
			c0.3,0,0.5,0.1,0.6,0.2c0.1,0.1,0.2,0.3,0.2,0.6c0,0.2-0.1,0.4-0.2,0.6c-0.2,0.1-0.4,0.2-0.6,0.2h-8.4
			C349,39.5,348.7,39.4,348.6,39.3z"/>
	</g>
	<g>
		<rect x="161" y="8.2" class="st1" width="0.8" height="46.6"/>
	</g>
</g>
</svg>
