<?xml version="1.0" encoding="utf-8"?>
<!-- Generator: Adobe Illustrator 21.1.0, SVG Export Plug-In . SVG Version: 6.00 Build 0)  -->
<svg version="1.1" id="Layer_1" xmlns="http://www.w3.org/2000/svg" xmlns:xlink="http://www.w3.org/1999/xlink" x="0px" y="0px"
	 viewBox="0 0 87 56.3" style="enable-background:new 0 0 87 56.3;" xml:space="preserve">
<style type="text/css">
	.st0{fill:none;stroke:#DDDDDD;stroke-width:0.5;stroke-linecap:round;stroke-linejoin:round;stroke-miterlimit:10;}
</style>
<g>
	<polyline class="st0" points="43.5,52.9 65.3,31.1 87,52.9 	"/>
	<line class="st0" x1="73.4" y1="52.9" x2="51.7" y2="31.1"/>
	<line class="st0" x1="51.7" y1="31.1" x2="43.5" y2="39.3"/>
	<polyline class="st0" points="43.5,52.9 21.8,31.1 0,52.9 	"/>
	<line class="st0" x1="35.3" y1="31.1" x2="13.6" y2="52.9"/>
	<line class="st0" x1="43.5" y1="39.3" x2="35.3" y2="31.1"/>
</g>
<g>
	<polyline class="st0" points="130.5,52.9 108.8,31.1 87,52.9 	"/>
</g>
<g>
	<polyline class="st0" points="0,25.9 21.8,4.2 43.5,25.9 	"/>
	<line class="st0" x1="29.9" y1="25.9" x2="8.2" y2="4.2"/>
	<line class="st0" x1="8.2" y1="4.2" x2="0" y2="12.3"/>
	<polyline class="st0" points="0,25.9 -21.8,4.2 -43.5,25.9 	"/>
	<line class="st0" x1="0" y1="12.3" x2="-8.2" y2="4.2"/>
</g>
<g>
	<polyline class="st0" points="87,25.9 108.8,4.2 130.5,25.9 	"/>
	<line class="st0" x1="95.2" y1="4.2" x2="87" y2="12.3"/>
	<polyline class="st0" points="87,25.9 65.3,4.2 43.5,25.9 	"/>
	<line class="st0" x1="78.8" y1="4.2" x2="57.1" y2="25.9"/>
	<line class="st0" x1="87" y1="12.3" x2="78.8" y2="4.2"/>
</g>
</svg>
